<svg width="1200" height="1600" viewBox="0 0 1200 1600" fill="none" xmlns="http://www.w3.org/2000/svg">
  <rect width="1200" height="1600" rx="48" fill="#07110D"/>
  <rect x="100" y="120" width="1000" height="1360" rx="36" fill="url(#bg)" stroke="#2D3E34" stroke-width="2"/>
  <circle cx="600" cy="520" r="230" fill="#0D1F16" stroke="#58FFA4" stroke-width="3"/>
  <path d="M600 320L650 470H550L600 320Z" fill="#58FFA4" fill-opacity="0.9"/>
  <path d="M600 700L645 830H555L600 700Z" fill="#58FFA4" fill-opacity="0.7"/>
  <path d="M450 470L530 520L450 570L390 520L450 470Z" fill="#58FFA4" fill-opacity="0.6"/>
  <path d="M750 470L670 520L750 570L810 520L750 470Z" fill="#58FFA4" fill-opacity="0.6"/>
  <rect x="240" y="900" width="720" height="260" rx="28" fill="#13261D"/>
  <path d="M320 1010H880" stroke="#58FFA4" stroke-width="18" stroke-linecap="round"/>
  <path d="M320 1060H780" stroke="#58FFA4" stroke-width="18" stroke-linecap="round"/>
  <path d="M320 1110H700" stroke="#58FFA4" stroke-width="18" stroke-linecap="round"/>
  <defs>
    <linearGradient id="bg" x1="150" y1="170" x2="1040" y2="1380" gradientUnits="userSpaceOnUse">
      <stop stop-color="#163726"/>
      <stop offset="1" stop-color="#09140E"/>
    </linearGradient>
  </defs>
</svg>