<svg width="1200" height="1600" viewBox="0 0 1200 1600" fill="none" xmlns="http://www.w3.org/2000/svg">
  <rect width="1200" height="1600" rx="48" fill="#07110D"/>
  <rect x="80" y="90" width="1040" height="1420" rx="36" fill="url(#bg)" stroke="#2D3E34" stroke-width="2"/>
  <rect x="190" y="220" width="300" height="180" rx="24" fill="#182822"/>
  <rect x="190" y="430" width="420" height="220" rx="24" fill="#11231A"/>
  <rect x="660" y="240" width="250" height="300" rx="24" fill="#0F1F16"/>
  <rect x="240" y="700" width="720" height="260" rx="28" fill="#0C1712"/>
  <rect x="240" y="1010" width="300" height="220" rx="24" fill="#162A1F"/>
  <rect x="580" y="1010" width="320" height="220" rx="24" fill="#162A1F"/>
  <path d="M280 320H430" stroke="#58FFA4" stroke-width="16" stroke-linecap="round"/>
  <path d="M280 360H390" stroke="#58FFA4" stroke-width="16" stroke-linecap="round"/>
  <path d="M230 530H530" stroke="#58FFA4" stroke-width="18" stroke-linecap="round"/>
  <path d="M230 580H470" stroke="#58FFA4" stroke-width="18" stroke-linecap="round"/>
  <path d="M250 770H870" stroke="#58FFA4" stroke-width="20" stroke-linecap="round"/>
  <path d="M250 830H740" stroke="#58FFA4" stroke-width="20" stroke-linecap="round"/>
  <circle cx="710" cy="390" r="70" fill="#58FFA4" fill-opacity="0.18"/>
  <path d="M710 330L745 390L710 450L675 390L710 330Z" stroke="#58FFA4" stroke-width="15"/>
  <rect x="280" y="1080" width="220" height="120" rx="16" fill="#58FFA4" fill-opacity="0.16"/>
  <rect x="610" y="1080" width="220" height="120" rx="16" fill="#58FFA4" fill-opacity="0.16"/>
  <defs>
    <linearGradient id="bg" x1="120" y1="110" x2="1080" y2="1460" gradientUnits="userSpaceOnUse">
      <stop stop-color="#143426"/>
      <stop offset="1" stop-color="#09140E"/>
    </linearGradient>
  </defs>
</svg>